<!-- Generator: Adobe Illustrator 23.0.2, SVG Export Plug-In  -->
<svg version="1.1" xmlns="http://www.w3.org/2000/svg" xmlns:xlink="http://www.w3.org/1999/xlink" x="0px" y="0px" width="22.2px"
     height="18.6px" viewBox="0 0 22.2 18.6" style="enable-background:new 0 0 22.2 18.6;" xml:space="preserve">
<defs>
</defs>
	<path d="M18.8,8h-1c-0.1-0.4-0.5-0.7-0.9-0.7h-1.1V4.7c0-0.1,0-0.2-0.1-0.2L8,0C7.9,0,7.8,0,7.7,0L0.1,4.4C0.1,4.5,0,4.6,0,4.7v8.8
	c0,0.1,0.1,0.2,0.1,0.2l7.6,4.4c0,0,0.1,0,0.1,0c0.1,0,0.1,0,0.1,0l4-2.3v1.7c0,0.7,0.5,1.2,1.2,1.2c0,0,0,0,0,0h5.5
	c0.7,0,1.2-0.5,1.2-1.2c0,0,0,0,0,0V9.3C20,8.6,19.5,8,18.8,8z M16.8,7.9c0.2,0,0.4,0.2,0.4,0.4l0,0v0c0,0.2-0.2,0.4-0.4,0.4
	c0,0,0,0,0,0h-1.6c-0.2,0-0.4-0.2-0.4-0.4l0,0v0c0-0.2,0.2-0.4,0.4-0.4c0,0,0,0,0,0H16.8z M7.9,0.6L11,2.4L4,6.5L0.9,4.7L7.9,0.6z
	 M7.6,17.3l-7-4.1V5.2l7,4.1V17.3z M7.9,8.7L4.6,6.8l7-4.1l3.3,1.9L7.9,8.7z M12,9.3v5.9l-3.8,2.2V9.2l7-4.1v2.1h0
	c-0.4,0-0.8,0.3-0.9,0.7h-1C12.6,8,12,8.6,12,9.3z M19.4,17.4c0,0.4-0.3,0.6-0.6,0.6c0,0,0,0,0,0h-5.5c-0.3,0-0.6-0.3-0.6-0.6
	c0,0,0,0,0,0V9.3c0-0.4,0.3-0.7,0.6-0.7c0,0,0,0,0,0h1c0.1,0.4,0.5,0.7,0.9,0.7h1.6c0.4,0,0.8-0.3,0.9-0.7h1c0.4,0,0.7,0.3,0.7,0.7
	V17.4z"/>
	<path d="M13.6,12.1h0.3c0.2,0,0.3-0.1,0.3-0.3c0-0.2-0.1-0.3-0.3-0.3h0v-0.8h0.8c0,0.1,0.1,0.2,0.3,0.2c0.2,0,0.3-0.1,0.3-0.3v-0.2
	c0-0.2-0.1-0.3-0.3-0.3h-1.3c-0.2,0-0.3,0.1-0.3,0.3c0,0,0,0,0,0v1.3C13.3,12,13.4,12.1,13.6,12.1C13.6,12.1,13.6,12.1,13.6,12.1z"
	/>
	<path d="M13.6,14.7h1.3c0.2,0,0.3-0.1,0.3-0.3v-1.3c0-0.2-0.1-0.3-0.3-0.3h-1.3c-0.2,0-0.3,0.1-0.3,0.3v1.3
	C13.3,14.6,13.4,14.7,13.6,14.7z M13.8,13.4h0.8v0.8h-0.8V13.4z"/>
	<path d="M13.9,16.7L13.9,16.7l0-0.8h0.8c0,0.2,0.1,0.3,0.3,0.3c0.2,0,0.3-0.1,0.3-0.3v-0.3c0-0.2-0.1-0.3-0.3-0.3h-1.3
	c-0.2,0-0.3,0.1-0.3,0.3V17c0,0.2,0.1,0.3,0.3,0.3c0,0,0,0,0,0h0.3c0.2,0,0.3-0.1,0.3-0.3C14.1,16.9,14,16.7,13.9,16.7L13.9,16.7z"
	/>
	<path d="M18.4,9.1l-1,1l-0.3-0.3c-0.1-0.1-0.3-0.1-0.5,0c-0.1,0.1-0.1,0.3,0,0.5l0.5,0.5c0.1,0.1,0.3,0.1,0.5,0c0,0,0,0,0,0l1.2-1.2
	c0.1-0.1,0.1-0.3,0-0.5S18.5,9,18.4,9.1L18.4,9.1z"/>
	<path d="M18.4,15.3l-1,1L17.1,16c-0.1-0.1-0.3-0.1-0.5,0c-0.1,0.1-0.1,0.3,0,0.5l0.5,0.5c0.1,0.1,0.3,0.1,0.5,0c0,0,0,0,0,0l1.2-1.2
	c0.1-0.1,0.1-0.3,0-0.5C18.7,15.1,18.5,15.1,18.4,15.3L18.4,15.3z"/>
	<path d="M21.8,9.5h-2.1c-0.2,0-0.3,0.2-0.3,0.3c0,0.2,0.2,0.3,0.3,0.3h2.1c0.2,0,0.3-0.2,0.3-0.3C22.2,9.6,22,9.5,21.8,9.5z"/>
	<path d="M21.8,12.6h-2.1c-0.2,0-0.3,0.2-0.3,0.3c0,0.2,0.2,0.3,0.3,0.3h2.1c0.2,0,0.3-0.2,0.3-0.3C22.2,12.7,22,12.6,21.8,12.6z"/>
	<path d="M21.8,15.6h-2.1c-0.2,0-0.3,0.2-0.3,0.3c0,0.2,0.2,0.3,0.3,0.3h2.1c0.2,0,0.3-0.2,0.3-0.3C22.2,15.8,22,15.6,21.8,15.6z"/>
</svg>
